<?xml version="1.0" encoding="UTF-8"?>
<svg id="Layer_1" xmlns="http://www.w3.org/2000/svg" version="1.1" viewBox="0 0 238.5 141.9">
  <!-- Generator: Adobe Illustrator 29.6.1, SVG Export Plug-In . SVG Version: 2.1.1 Build 9)  -->
  <defs>
    <style>
      .st0 {
        fill: #0b826f;
      }

      .st1 {
        fill: #184f5d;
      }
    </style>
  </defs>
  <path class="st1" d="M85.4,61c.2-.2-.3-14.6-.4-21.7,0-4.8,3-8.5,7.9-8.5,7.7-.1,16.2,4,28.5,3.6,8.8-.3,13.6-3,20.2-3.5.9,0,1.8,0,2.6.2,10.3,2.7,13.1,17.2,8.4,26-.9,1.7-2.4,3.1-4,4.2-14.2,9.6-19.3,13.1-30.4,19.8-11.3,6.9-7.5,10.1-3.8,10.7,15.2-.9,20.2-2.3,33.9-7.1,9.4-4.7,16.7-11.9,21.6-21.8,1.7-3.8,4-9.2,4-19.6,0-4.4,0-11.1-2-16.1-.3-.7-4.7-11-15-15.7-11.1-5-25.8-.4-35.9,9.8-14.4-11.1-31-14.8-42.1-7.6-7.9,5.1-10.6,13.7-11.8,17.7-3.3,13.5-.8,29.4,8.1,39.3,0,0,6.5-6.2,10.3-9.6Z"/>
  <path class="st0" d="M154.6,80.9c-.2.2.1,14.5.3,21.7,0,4.8-3,8.5-7.9,8.5-7.7.1-18.2-3.7-28.5-3.6-9.4,0-14.3,2.5-21.5,2.7-6.6-.6-11.8-6.9-11.6-13.1-.5-5.8-.4-11.7,3.8-15.1,15.8-10.7,20.9-14.2,32.5-21.2,11.3-6.9,7.5-10.1,3.8-10.7-15.2.9-20.2,2.3-33.9,7.1-9.4,4.7-16.7,11.9-21.6,21.8-1.7,3.8-4,9.2-4,19.6,0,4.4,0,11.1,2,16.1.3.7,4.7,11,15,15.7,11.1,5,25.8.4,35.9-9.8,14.4,11.1,31,14.8,42.1,7.6,7.9-5.1,10.6-13.7,11.8-17.7,3.3-13.5-.9-27.6-9.8-37.6,0,0-2.3,3.6-8.5,8Z"/>
</svg>