<?xml version="1.0" encoding="UTF-8"?>
<svg id="Layer_2" data-name="Layer 2" xmlns="http://www.w3.org/2000/svg" width="941.93" height="150.28" viewBox="0 0 941.93 150.28">
  <defs>
    <style>
      .cls-1 {
        fill: #0c8073;
      }

      .cls-2 {
        fill: #184f5d;
      }
    </style>
  </defs>
  <g id="Layer_1-2" data-name="Layer 1">
    <g>
      <path class="cls-2" d="M0,110.4L71.67,41.33H4.33V3.76h124.27v36.13L56.93,108.95h74.57v37.58H0v-36.13Z"/>
      <path class="cls-2" d="M149.71,75.14C149.71,31.79,181.5,0,226.58,0s76.01,31.79,76.01,75.14v12.14h-107.8c3.47,16.77,16.18,24.28,31.79,24.28,12.43,0,21.68-2.61,27.17-10.41h44.79c-9.25,29.47-36.42,49.13-71.96,49.13-45.08,0-76.87-31.79-76.87-75.14ZM258.08,59.83c-4.91-14.74-16.47-21.09-31.5-21.09s-26.59,6.64-30.92,21.09h62.42Z"/>
      <path class="cls-2" d="M325.14,72.54c0-47.98,28.33-72.54,70.52-72.54s70.51,24.28,70.51,72.54v73.98h-43.35v-73.98c0-22.54-10.98-32.08-27.16-32.08s-27.17,9.54-27.17,32.08v73.98h-43.35v-73.98Z"/>
      <path class="cls-2" d="M488.72,75.14c0-43.35,31.79-75.14,76.87-75.14s76.01,31.79,76.01,75.14v12.14h-107.8c3.47,16.77,16.18,24.28,31.79,24.28,12.43,0,21.68-2.61,27.17-10.41h44.79c-9.25,29.47-36.42,49.13-71.96,49.13-45.08,0-76.87-31.79-76.87-75.14ZM597.09,59.83c-4.91-14.74-16.47-21.09-31.5-21.09s-26.59,6.64-30.92,21.09h62.42Z"/>
      <path class="cls-1" d="M693.06,73.41L646.82,3.76h51.72l26.31,45.38,26.29-45.38h50.58l-46.53,69.65,48.85,73.12h-51.73l-28.61-49.13-28.61,49.13h-50.58l48.55-73.12Z"/>
      <path class="cls-2" d="M910.17,2.4v12.87c-10.27-6.97-22.67-10.98-36.37-10.98-39.67,0-71.67,31.88-71.67,71.2s32,71.2,71.67,71.2c13.7,0,26.09-3.78,36.37-10.15v11.93h31.76V2.4h-31.76ZM871.91,110.44c-19.01,0-34.36-15.35-34.36-34.24s15.35-34.36,34.36-34.36,34.24,15.35,34.24,34.36-15.35,34.24-34.24,34.24Z"/>
    </g>
  </g>
</svg>