<?xml version="1.0" encoding="UTF-8"?>
<svg id="Layer_2" data-name="Layer 2" xmlns="http://www.w3.org/2000/svg" width="401.66" height="279.72" viewBox="0 0 401.66 279.72">
  <defs>
    <style>
      .cls-1 {
        fill: #0b826f;
      }

      .cls-2 {
        fill: #0c8073;
      }

      .cls-3 {
        fill: #184f5d;
      }
    </style>
  </defs>
  <g id="Layer_1-2" data-name="Layer 1">
    <g>
      <path class="cls-3" d="M147.93,79.29c.34-.3-.47-22.46-.66-33.41-.13-7.38,4.66-13,12.11-13.13,11.91-.2,24.86,6.15,43.89,5.58,13.58-.4,20.99-4.66,31.06-5.45,1.35-.11,2.74-.03,4.04.31,15.91,4.18,20.12,26.53,12.91,40.07-1.41,2.65-3.66,4.77-6.14,6.45-21.84,14.77-29.74,20.14-46.75,30.45-17.37,10.54-11.48,15.46-5.85,16.41,23.45-1.42,31.01-3.48,52.07-10.95,14.46-7.21,25.63-18.33,33.15-33.59,2.62-5.77,6.15-14.16,6.15-30.14,0-6.7-.04-17.06-3.14-24.71-.42-1.03-7.15-16.99-23.14-24.11-17.12-7.63-39.66-.54-55.23,15.04C180.23,1.07,154.74-4.57,137.73,6.51c-12.13,7.9-16.29,21.08-18.21,27.16-5,20.72-1.28,45.15,12.53,60.43,0,0,9.93-9.59,15.88-14.81Z"/>
      <path class="cls-1" d="M254.42,109.82c-.37.26.2,22.37.39,33.32.13,7.38-4.66,13-12.11,13.13-11.91.2-27.97-5.67-43.89-5.58-14.49.08-21.94,3.91-33.1,4.17-10.21-.85-18.1-10.56-17.78-20.21-.75-8.96-.64-18.02,5.83-23.19,24.29-16.42,32.13-21.81,49.93-32.61,17.37-10.54,11.48-15.46,5.85-16.41-23.45,1.42-31.01,3.48-52.07,10.95-14.46,7.21-25.63,18.33-33.15,33.59-2.62,5.77-6.15,14.16-6.15,30.14,0,6.7.04,17.06,3.14,24.71.42,1.03,7.15,16.99,23.14,24.11,17.12,7.63,39.66.54,55.23-15.04,22.18,17.05,47.67,22.7,64.68,11.62,12.13-7.9,16.29-21.08,18.21-27.16,5-20.72-1.32-42.49-15.13-57.76,0,0-3.56,5.59-13.01,12.24Z"/>
      <path class="cls-3" d="M0,262.71l30.56-29.45H1.85v-16.02h52.99v15.41l-30.56,29.45h31.8v16.02H0v-15.41Z"/>
      <path class="cls-3" d="M63.84,247.67c0-18.49,13.56-32.04,32.78-32.04s32.41,13.56,32.41,32.04v5.18h-45.97c1.48,7.15,6.9,10.35,13.56,10.35,5.3,0,9.24-1.11,11.59-4.44h19.1c-3.94,12.57-15.53,20.95-30.69,20.95-19.22,0-32.78-13.56-32.78-32.04ZM110.05,241.14c-2.09-6.29-7.02-8.99-13.43-8.99s-11.34,2.83-13.19,8.99h26.62Z"/>
      <path class="cls-3" d="M138.65,246.57c0-20.46,12.08-30.93,30.07-30.93s30.07,10.35,30.07,30.93v31.55h-18.49v-31.55c0-9.61-4.68-13.68-11.58-13.68s-11.59,4.07-11.59,13.68v31.55h-18.49v-31.55Z"/>
      <path class="cls-3" d="M208.4,247.67c0-18.49,13.56-32.04,32.78-32.04s32.41,13.56,32.41,32.04v5.18h-45.97c1.48,7.15,6.9,10.35,13.56,10.35,5.3,0,9.24-1.11,11.59-4.44h19.1c-3.94,12.57-15.53,20.95-30.69,20.95-19.22,0-32.78-13.56-32.78-32.04ZM254.61,241.14c-2.09-6.29-7.02-8.99-13.43-8.99s-11.34,2.83-13.19,8.99h26.62Z"/>
      <path class="cls-2" d="M295.53,246.94l-19.72-29.7h22.06l11.22,19.35,11.21-19.35h21.57l-19.84,29.7,20.83,31.18h-22.06l-12.2-20.95-12.2,20.95h-21.57l20.7-31.18Z"/>
      <path class="cls-3" d="M388.12,216.66v5.49c-4.38-2.97-9.67-4.68-15.51-4.68-16.92,0-30.56,13.59-30.56,30.36s13.64,30.36,30.56,30.36c5.84,0,11.13-1.61,15.51-4.33v5.09h13.54v-62.28h-13.54ZM371.8,262.72c-8.11,0-14.65-6.55-14.65-14.6s6.55-14.65,14.65-14.65,14.6,6.55,14.6,14.65-6.55,14.6-14.6,14.6Z"/>
    </g>
  </g>
</svg>