<?xml version="1.0" encoding="UTF-8"?>
<svg id="Layer_2" data-name="Layer 2" xmlns="http://www.w3.org/2000/svg" width="368.1" height="76.5" viewBox="0 0 368.1 76.5">
  <defs>
    <style>
      .cls-1 {
        fill: #0b826f;
      }

      .cls-2 {
        fill: #0c8073;
      }

      .cls-3 {
        fill: #184f5d;
      }
    </style>
  </defs>
  <g id="Layer_1-2" data-name="Layer 1">
    <g>
      <path class="cls-3" d="M12.36,32.09c.14-.12-.19-9.09-.27-13.52-.05-2.99,1.89-5.26,4.9-5.31,4.82-.08,10.06,2.49,17.76,2.26,5.5-.16,8.49-1.89,12.57-2.2.55-.04,1.11-.01,1.64.13,6.44,1.69,8.14,10.74,5.22,16.22-.57,1.07-1.48,1.93-2.49,2.61-8.84,5.98-12.04,8.15-18.92,12.33-7.03,4.26-4.65,6.26-2.37,6.64,9.49-.58,12.55-1.41,21.08-4.43,5.85-2.92,10.37-7.42,13.42-13.59,1.06-2.33,2.49-5.73,2.49-12.2,0-2.71-.02-6.9-1.27-10-.17-.42-2.9-6.88-9.36-9.76-6.93-3.09-16.05-.22-22.35,6.09C25.43.43,15.11-1.85,8.23,2.63,3.32,5.83,1.63,11.17.86,13.63c-2.02,8.39-.52,18.27,5.07,24.46,0,0,4.02-3.88,6.43-5.99Z"/>
      <path class="cls-1" d="M55.45,44.45c-.15.11.08,9.05.16,13.48.05,2.99-1.89,5.26-4.9,5.31-4.82.08-11.32-2.29-17.76-2.26-5.86.03-8.88,1.58-13.4,1.69-4.13-.34-7.33-4.27-7.2-8.18-.3-3.63-.26-7.3,2.36-9.39,9.83-6.65,13-8.83,20.21-13.2,7.03-4.26,4.65-6.26,2.37-6.64-9.49.58-12.55,1.41-21.08,4.43-5.85,2.92-10.37,7.42-13.42,13.59-1.06,2.33-2.49,5.73-2.49,12.2,0,2.71.02,6.9,1.27,10,.17.42,2.9,6.88,9.36,9.76,6.93,3.09,16.05.22,22.35-6.09,8.98,6.9,19.29,9.19,26.18,4.7,4.91-3.2,6.59-8.53,7.37-10.99,2.02-8.39-.53-17.2-6.12-23.38,0,0-1.44,2.26-5.27,4.95Z"/>
      <path class="cls-3" d="M79.2,52.84l21.98-21.19h-20.65v-11.52h38.11v11.08l-21.98,21.18h22.87v11.52h-40.33v-11.08Z"/>
      <path class="cls-3" d="M125.11,42.03c0-13.3,9.75-23.05,23.58-23.05s23.31,9.75,23.31,23.05v3.72h-33.06c1.06,5.14,4.96,7.45,9.75,7.45,3.81,0,6.65-.8,8.33-3.19h13.74c-2.84,9.04-11.17,15.07-22.07,15.07-13.83,0-23.58-9.75-23.58-23.05ZM158.35,37.33c-1.51-4.52-5.05-6.47-9.66-6.47s-8.15,2.04-9.48,6.47h19.15Z"/>
      <path class="cls-3" d="M178.92,41.23c0-14.72,8.69-22.25,21.63-22.25s21.63,7.45,21.63,22.25v22.69h-13.3v-22.69c0-6.91-3.37-9.84-8.33-9.84s-8.33,2.93-8.33,9.84v22.69h-13.3v-22.69Z"/>
      <path class="cls-3" d="M229.09,42.03c0-13.3,9.75-23.05,23.58-23.05s23.31,9.75,23.31,23.05v3.72h-33.06c1.06,5.14,4.96,7.45,9.75,7.45,3.81,0,6.65-.8,8.33-3.19h13.74c-2.84,9.04-11.17,15.07-22.07,15.07-13.83,0-23.58-9.75-23.58-23.05ZM262.33,37.33c-1.51-4.52-5.05-6.47-9.66-6.47s-8.15,2.04-9.48,6.47h19.15Z"/>
      <path class="cls-2" d="M291.76,41.5l-14.18-21.36h15.86l8.07,13.92,8.06-13.92h15.51l-14.27,21.36,14.98,22.43h-15.87l-8.77-15.07-8.77,15.07h-15.51l14.89-22.43Z"/>
      <path class="cls-3" d="M358.35,19.72v3.95c-3.15-2.14-6.95-3.37-11.15-3.37-12.17,0-21.98,9.78-21.98,21.84s9.81,21.84,21.98,21.84c4.2,0,8-1.16,11.15-3.11v3.66h9.74V19.72h-9.74ZM346.62,52.85c-5.83,0-10.54-4.71-10.54-10.5s4.71-10.54,10.54-10.54,10.5,4.71,10.5,10.54-4.71,10.5-10.5,10.5Z"/>
    </g>
  </g>
</svg>